Patient4_TMGait_0pt3_03_right_06_EMG.mot
version=1
nRows=30
nColumns=33
inDegrees=no
endheader
time	1LAddLong	2LGlutMax	3LGlutMed	4LIliopsoas	5LSemiMemb	6LBicFemLong	7LRecFem	8LVastMed	9LVastLat	10LGasMed	11LTibAnt	12lTibPost	13LPeroneusLong	14LSol	15LExtDigLong	16LFlexDigLong	17RAddLong	18RGlutMax	19RGlutMed	20RIliopsoas	21RSemiMemb	22RBicFemLong	23RRecFem	24RVastMed	25RVastLat	26RGasMed	27RTibAnt	28RTibPost	29RPeroneusLong	30RSol	31RExtDigLong	32RFlexDigLong
11.952	-0.010529	-0.029602	0.014343	0.001221	0.03891	0.061798	0.066223	0.011444	-0.007324	-0.030365	0.015411	-0.00946	-0.075989	0.006104	0.009308	-0.060425	0.034637	0.60394	0.012512	-0.004272	-0.61584	0.13779	-0.16602	0.42786	0.2742	-0.023193	0.012512	-0.002136	-0.076904	-0.076599	-0.000916	-0.010529
11.953	-0.01358	-0.011749	0.0177	0.00061	0.053558	0.042572	0.04425	0.017853	0.013733	-0.078278	-0.006561	-0.010986	-0.070648	-0.011902	-0.014038	-0.87647	0.001221	0.35965	-0.44693	0.023956	-0.36728	0.31143	-0.17456	0.14954	0.43106	-0.016937	0.12116	0.005188	-0.00473	-0.298	-0.002289	-0.018463
11.954	-0.01358	-0.030365	0.022736	-0.011292	0.039673	0.065308	0.023346	0.014191	0.015564	-0.13886	-0.009918	-0.001373	-0.064545	0.016937	-0.026855	0.92285	-0.03479	0.28473	-0.35095	0.030518	0.55801	0.30487	-0.23361	-0.1503	0.42023	-0.013275	0.16144	0.000458	0.052948	-0.5188	-0.001831	-0.012512
11.955	-0.016327	-0.018768	0.020142	-0.006561	0.034485	0.093994	0.031128	0.014954	0.028534	-0.1236	0.031128	0.001526	-0.112	0.016785	-0.007629	0.33432	-0.027924	0.30426	0.38437	-0.023651	0.70725	0.086365	-0.26459	-0.2327	0.34347	-0.005798	0.21545	0.002136	0.009155	-0.49286	-0.001831	-0.009766
11.956	-0.007477	-0.059204	0.016785	0.008087	0.018616	0.071411	0.016174	0.012512	0.028839	-0.1294	-0.026245	0.005188	-0.090027	0.081635	0.056458	-0.15656	-0.047455	0.31494	0.5423	-0.053253	0.40131	-0.084076	-0.13489	-0.2652	0.15472	-0.019531	0.4042	0.001526	0.050201	0.045471	-0.001831	-0.014801
11.957	-0.003662	-0.054626	0.016174	0.020294	0.013123	0.030212	0.021973	0.008087	0.031128	-0.12192	0.021362	0.018158	-0.023193	0.18631	0.023956	-0.14435	-0.055084	0.46555	0.11627	0.014648	0.26627	-0.11673	0.12894	-0.1062	0.14969	-0.000763	0.27756	0	0.010376	0.44891	-0.006409	-0.001068
11.958	-0.003662	-0.063934	0.023499	0.022125	0.002289	-0.027161	-0.000763	0.018768	0.038452	0.057983	0.025787	0.056763	-0.009003	0.1651	-0.014191	0.24262	-0.009003	0.52795	-0.62088	0.06134	0.14008	-0.06073	0.32562	-0.092621	0.32684	-0.007324	0.080414	0.000305	-0.034027	0.65079	-0.003204	0.00351
11.959	0.005188	-0.056915	0.019989	0.01709	-0.030823	-0.03952	-0.015106	0.006409	0.056152	0.20371	0.00351	0.00412	-0.004272	0.12268	-0.019989	0.019989	-0.002747	0.63232	0.055847	-0.033875	0.053406	0.055847	0.53024	-0.15961	0.14603	0.006561	-0.23956	-0.000153	-0.026855	0.52582	0.005035	0.001831
11.96	0.024567	-0.002136	0.022278	-0.010071	-0.032349	-0.11185	0.001984	0.017853	0.055695	0.34286	-0.001373	-0.069885	0.013885	0.057373	-0.031128	0.22186	-0.010986	0.84015	0.62744	-0.073853	-0.25223	0.14694	0.34286	-0.26062	0.048676	0.006104	-0.37872	0.001831	-0.052338	0.17532	0.000916	-0.001984
11.961	0.033264	-0.034027	0.027466	-0.007935	-0.030975	-0.13565	0	0.019684	0.064392	0.40161	0.003815	-0.066833	0.013885	-0.010834	-0.062866	0.03479	-0.03006	1.0515	0.38895	-0.032806	0.034332	0.10513	0.035706	-0.35248	0.034332	-0.009003	-0.73425	-0.000305	-0.000763	-0.029297	-0.004883	0
11.962	0.025635	-0.066223	0.029449	-0.001221	-0.021057	-0.15961	0.006714	0.00885	0.071259	0.233	-0.027466	-0.049286	0.008545	0.014954	-0.052795	0.075378	-0.048523	0.92972	-0.90637	0.000153	0.18265	0.047455	-0.39764	-0.38605	0.1355	-0.011597	-0.46448	-0.000153	-0.014496	-0.11353	-0.002136	-0.00946
11.963	0.025787	-0.055237	0.005646	0.007782	-0.015411	-0.00412	-0.018921	0.014038	0.074005	-0.082245	-0.038147	-0.029755	0.008087	-0.096741	-0.019226	0.017853	-0.025482	0.92041	-1.6972	0.000458	-0.027313	-0.13977	-0.46539	-0.38528	-0.18616	-0.020142	-0.12314	-0.001221	-0.11627	-0.069122	0.00061	-0.005646
11.964	0.011139	-0.066528	0.019226	0.007935	-0.003967	0.13077	0.024719	0.017548	0.06897	-0.039673	-0.030975	-0.019073	-0.00473	-0.16052	0.007172	0.001373	0.038147	0.97427	-1.0661	-0.027466	0.084076	-0.21866	-0.063629	-0.16892	-0.74509	-0.028992	-0.10025	0.00061	-0.19089	-0.14923	-0.003357	-0.010071
11.965	0.001068	-0.053253	0.006714	0.014954	-0.027618	0.14969	-0.001221	0.015717	0.071106	0.20111	0.015411	-0.003967	0.007019	-0.11993	0.022125	0.006866	0.088196	0.97611	-0.59769	0.013885	0.1355	-0.20783	0.22293	0.048065	-0.6958	-0.018616	-0.27054	-0.005798	-0.081635	-0.27802	-0.00061	-0.004578
11.966	-0.000305	-0.01297	0.019836	0.004425	-0.062256	0.023956	-0.026398	0.010071	0.079498	0.17395	-0.021057	0.000458	-0.008545	-0.12253	0.13657	-0.09491	0.15106	0.93338	0.19928	-0.006409	-0.14893	-0.19379	0.28458	-0.02533	-0.23636	0.027008	0.23392	0.003204	0.08316	-0.44296	-0.005188	-0.005951
11.967	-0.00824	-0.076752	0.042114	0.01236	-0.047302	0.052643	0.007019	0.010834	0.062714	-0.046539	-0.043488	0.006409	-0.055542	-0.15778	0.12207	-0.15335	0.15488	0.76797	1.2756	-0.029907	-0.40054	-0.14099	0.20813	-0.10513	-0.12024	0.024261	-0.13931	-0.000916	0.2562	-0.48431	-0.000458	-0.002441
11.968	-0.013275	-0.060883	0.0383	0.014343	-0.01358	-0.076141	0.037994	0.017242	0.029907	-0.039368	-0.093689	0.015259	-0.075378	-0.095367	0.026703	-0.087128	0.13397	0.48294	2.0229	-0.001068	-0.32974	-0.037231	0.23636	-0.18753	-0.056	0.011597	-0.33279	-0.002747	0.075378	-0.38116	-0.004883	-0.00946
11.969	-0.003967	-0.04425	0.060272	0.006866	0.020447	-0.15152	0.04715	0.01709	0.008087	-0.012817	-0.016479	0.021667	-0.097656	-0.005951	0.039368	0.098419	0.11887	0.46081	1.1726	0.029755	-0.1648	0.053558	0.17609	-0.16769	0.11658	-0.001678	-0.1741	-0.010223	-0.015106	-0.37582	-0.003357	-0.007324
11.97	0.004578	-0.062103	0.062103	-0.003052	0.023804	-0.060577	0.045776	0.012512	-0.007629	0.013123	0.030212	0.027466	-0.059814	0.003357	0.38223	-0.039215	0.056305	0.47104	0.62454	0.064087	0.23865	0.14603	0.14938	-0.11643	0.21088	0.000916	-0.10895	-0.013275	-0.082855	-0.13031	-0.002289	0.001984
11.971	0.005951	-0.052185	0.081329	0.015564	0.013733	-0.024261	0.025177	0.016174	-0.005951	0.023804	0.020752	0.019989	0.016479	0.015717	0.12833	-0.060272	-0.011292	0.48691	0.21027	0.068054	0.41946	0.20096	0.062866	0.054474	0.2179	0.016785	0.035858	-0.003815	0.13199	0.11719	-0.002441	-0.012817
11.972	0.010681	-0.046082	0.093842	0.00061	-0.006256	0.094299	0.010376	0.020294	0.007629	0.028839	0.035248	0.02533	0.010376	0.048676	0.073242	-0.019836	-0.088501	0.3305	-0.44601	0.029449	-0.30045	0.088959	-0.039825	0.16525	0.26398	0.008545	0.24841	-0.003052	0.17456	-0.26352	0.00885	-0.012817
11.973	0.006256	-0.034332	0.090942	-0.006409	-0.023346	0.14954	0.020599	0.017548	0.01297	0.048828	-0.12009	0.026703	-0.005798	0.090332	0.16678	-0.001221	-0.084229	0.17822	-1.1755	-0.024109	-0.30594	-0.073853	0.013275	0.095062	0.19562	0.000305	0.65796	-0.003357	0.091705	-0.49118	-0.001831	-0.012665
11.974	0.010376	-0.04715	0.063477	0.004883	-0.019226	0.057983	0.024719	0.011597	-0.020294	0.10071	-0.16464	0.023499	-0.031433	0.10086	-0.25665	-0.005035	-0.071259	0.11826	-1.1443	0.055847	-0.001373	-0.088959	-0.064545	0.15213	0.10559	-0.003204	0.46005	-0.004272	0.028229	-0.52658	-0.000153	-0.011597
11.975	0.008392	-0.024261	0.066681	0.018158	-0.016174	0.043945	-0.014038	0.009766	-0.001678	0.070038	-0.12802	0.027924	0.06546	0.12039	-0.26291	0.000305	-0.019836	0.12466	-0.54581	0.022278	0.067596	-0.11719	-0.05722	0.12253	-0.17822	0.000763	-0.10651	-0.011139	0.11429	-0.33173	-0.002136	-0.00946
11.976	0.009613	-0.003052	0.098267	-0.000458	0.019684	-0.040131	-0.020752	0.014038	-0.006866	0.11002	-0.12726	0.022278	0.16129	0.005188	-0.098572	-0.010071	0.00824	0.083618	0.38727	-0.019531	-0.079193	-0.17609	0.018311	0.057983	-0.42084	-0.000916	-1.2791	-0.007935	0.15732	0.15335	-0.001984	-0.006256
11.977	0.006256	-0.036316	0.074768	0.009308	0.092468	-0.087433	0.003662	0.002136	-0.016327	0.079651	0.005951	0.020142	0.082703	-0.030212	-0.60318	-0.011902	0.010071	-0.17334	1.0271	-0.021057	-0.053406	-0.11887	0.097656	0.093842	-0.22842	0.00061	-0.51117	0.001831	0.13062	0.41809	-0.002289	-0.004578
11.978	-0.005341	-0.078583	0.058136	-0.003662	0.06012	0.079651	0.001984	0.013428	-0.019379	-0.061188	0.096283	0.031128	0.007324	0.004578	-0.083771	-0.012817	0.005493	-0.31845	0.58716	0.009308	0.063934	-0.11856	0.20645	0.20447	-0.088501	-0.001984	-0.24506	0.010529	0.081787	0.72571	-0.00061	-0.006409
11.979	-0.019379	-0.081787	0.074005	0.019226	0.003357	0.10147	0.035553	0.019989	-0.024414	-0.21698	0.19394	0.021057	0.014191	0.048676	-0.15045	-0.005646	-0.027161	-0.35553	-0.36636	0.046234	0.13626	0.000763	0.14923	0.27908	0.076447	0.005493	-0.24094	0.005646	-0.006866	0.80505	-0.000458	-0.002289
11.98	-0.016327	-0.075226	0.093231	0.009766	0.030823	0.086212	0.004578	0.009308	-0.046844	-0.14633	0.26794	0.036011	0.028381	0.099487	-0.20004	0.000305	-0.011444	-0.28732	-0.48996	0.084839	-0.13016	0.14175	0.14206	0.13641	0.10376	0.003662	-0.26016	0.001831	-0.05127	0.64819	-0.002289	-0.010681
11.981	-0.013275	-0.10849	0.095978	0.022888	0.00824	0.079041	0.000153	0.014191	-0.036621	-0.044861	0.2594	0.014343	-0.035858	0.023499	-0.23407	0.018768	-0.061951	-0.29465	-0.18814	0.06012	-0.11322	0.27283	0.11078	0.11505	0.094604	0.00946	-0.33981	-0.003357	-0.1387	0.48401	-0.004425	-0.004883
